# xmcd
#
# Track frame offsets:
#	150
#	16477
#	32345
#	45240
#	64953
#	79591
#	97604
#	118955
#	133200
#	147235
#	163970
#	184944
#	199075
#	216770
#	234664
#	254205
#	272895
#	292387
#
# Disc length: 4080 seconds
#
# Revision: 1
# Processed by: cddbd v1.5.2PL0 Copyright (c) Steve Scherf et al.
# Submitted via: audiograbber 1.83.01
#
DISCID=180fee12
DTITLE=Various/Verschiedene - bluesnews Collection Vol. 13
DYEAR=2018
DGENRE=
TTITLE0=Lucy Malheur - Shingeling Blues
TTITLE1=Marco Marchi and The Mojo Workers - Down The River
TTITLE2=Ralph Brauner - Moving Forward
TTITLE3=Hot'n'Nasty - Shake The Devil's Hand
TTITLE4=Little Chevy - If I Was A Man
TTITLE5=Hanno Bruhn Gang - Jammerlappen Blues
TTITLE6=Hubert Dorigatti - Louisiana Voodoo
TTITLE7=Andreas Diehlmann Band - Come On Into My Kitchen
TTITLE8=Alexander and Maximilian Blume - Seit Wochen schon auf Tour
TTITLE9=MarKuz Walach - As Long A I Move
TTITLE10=City Blues Connection - Leave You In The Mornin' 
TTITLE11=Professor Snake Oil - Snake Oil Shuffle 
TTITLE12=Mad Kitchen - Golden Rules
TTITLE13=Waymountain Bluesband - Das ist alles Leben
TTITLE14=B-Five-Bluesband - Nobody Knows You When You're Down And Out
TTITLE15=Eddie Kold Band - Think About You All The Time
TTITLE16=Mister Blues - Das Ding ist durch
TTITLE17=The Sourland Blues Brothers - Tribute To John Lee Hooker
EXTD=
EXTT0=
EXTT1=
EXTT2=
EXTT3=
EXTT4=
EXTT5=
EXTT6=
EXTT7=
EXTT8=
EXTT9=
EXTT10=
EXTT11=
EXTT12=
EXTT13=
EXTT14=
EXTT15=
EXTT16=
EXTT17=
PLAYORDER=
